<mxfile host="app.diagrams.net" modified="2024-06-22T13:38:32.383Z" agent="Mozilla/5.0 (Windows NT 10.0; Win64; x64) AppleWebKit/537.36 (KHTML, like Gecko) Chrome/126.0.0.0 Safari/537.36" version="24.6.2" etag="d7x8CqC0NoD4sklYnHb9" type="github">
  <diagram name="PÃ¡gina-1" id="pKkbvnWl6s-Ovt-hSbjj">
    <mxGraphModel>
      <root>
        <mxCell id="0" />
        <mxCell id="1" parent="0" />
      </root>
    </mxGraphModel>
  </diagram>
</mxfile>
